<?xml version="1.0" standalone="no"?>
<!DOCTYPE svg PUBLIC "-//W3C//DTD SVG 20010904//EN"
 "http://www.w3.org/TR/2001/REC-SVG-20010904/DTD/svg10.dtd">
<svg version="1.0" xmlns="http://www.w3.org/2000/svg"
 width="1080.000000pt" height="1080.000000pt" viewBox="0 0 1080.000000 1080.000000"
 preserveAspectRatio="xMidYMid meet">

<g transform="translate(0.000000,1080.000000) scale(0.100000,-0.100000)"
fill="#ffffff" stroke="none">
<path d="M5195 9859 c-872 -41 -1690 -325 -2402 -834 -491 -351 -946 -853
-1256 -1385 -78 -134 -227 -442 -286 -590 -145 -366 -239 -741 -288 -1150 -22
-184 -25 -771 -5 -955 134 -1222 719 -2285 1679 -3052 460 -368 1039 -657
1613 -807 434 -114 785 -153 1270 -143 461 10 825 72 1262 214 670 217 1262
579 1763 1078 466 463 816 1007 1044 1619 122 327 212 717 253 1091 18 162 17
750 0 910 -97 874 -416 1654 -956 2331 -582 732 -1394 1268 -2296 1518 -446
123 -929 176 -1395 155z m15 -4460 l0 -3652 -82 7 c-646 55 -1238 259 -1762
609 -335 225 -682 558 -917 882 -429 591 -672 1283 -698 1990 -21 591 70 1094
296 1620 183 428 447 810 795 1150 599 587 1327 933 2168 1029 63 7 134 14
158 15 l42 1 0 -3651z"/>
</g>
</svg>
