<?xml version="1.0" standalone="no"?>
<!DOCTYPE svg PUBLIC "-//W3C//DTD SVG 20010904//EN"
 "http://www.w3.org/TR/2001/REC-SVG-20010904/DTD/svg10.dtd">
<svg version="1.0" xmlns="http://www.w3.org/2000/svg"
 width="1080.000000pt" height="1080.000000pt" viewBox="0 0 1080.000000 1080.000000"
 preserveAspectRatio="xMidYMid meet">

<g transform="translate(0.000000,1080.000000) scale(0.100000,-0.100000)"
fill="#ffffff" stroke="none">
<path d="M3414 9941 c-62 -15 -145 -72 -176 -120 -29 -45 -29 -48 -24 -146 3
-55 10 -140 15 -190 5 -49 14 -151 20 -225 6 -74 16 -189 21 -255 6 -66 13
-169 16 -230 2 -60 9 -139 14 -175 6 -36 12 -103 14 -150 3 -47 12 -193 21
-325 46 -659 51 -777 32 -830 -18 -53 -62 -80 -103 -65 -55 21 -110 87 -176
210 -100 185 -212 402 -433 835 -459 899 -475 929 -534 969 -59 41 -100 44
-179 11 -95 -41 -109 -51 -128 -101 -13 -34 -15 -61 -11 -118 4 -41 11 -85 16
-98 5 -12 16 -41 24 -63 35 -89 170 -396 246 -557 23 -48 41 -90 41 -92 0 -3
15 -38 34 -78 19 -40 43 -93 54 -118 11 -25 41 -92 67 -150 25 -58 60 -136 77
-175 16 -38 39 -90 50 -115 36 -78 190 -444 198 -470 5 -14 20 -56 34 -95 34
-90 45 -209 23 -251 -21 -42 -56 -58 -111 -52 -53 6 -148 50 -189 87 -25 22
-172 197 -389 460 -29 35 -71 84 -93 110 -34 39 -74 88 -142 171 -7 8 -32 38
-56 65 -24 28 -52 62 -63 76 -39 54 -230 275 -280 325 -42 41 -63 54 -102 63
-87 18 -171 -21 -209 -99 -35 -70 -30 -100 33 -219 60 -113 204 -360 262 -451
50 -77 343 -517 367 -551 272 -377 457 -688 533 -899 41 -115 50 -148 68 -265
17 -110 28 -172 43 -255 17 -91 43 -222 52 -265 4 -22 13 -65 19 -95 38 -182
177 -651 210 -712 6 -10 10 -22 10 -28 0 -9 27 -72 73 -170 106 -227 327 -444
524 -515 47 -17 60 -17 160 -6 186 22 373 29 508 20 l130 -8 35 39 c49 54 110
135 397 523 15 21 39 52 53 69 50 63 273 376 358 503 80 119 282 500 282 531
0 16 -123 20 -162 5 -35 -13 -437 -21 -563 -11 -179 15 -279 38 -428 99 -121
49 -193 89 -277 154 -84 65 -99 80 -155 155 -87 119 -125 231 -125 367 0 95
15 162 55 250 41 92 154 207 246 252 72 36 209 74 284 79 282 22 287 22 372
60 17 8 36 14 42 14 6 0 30 6 53 14 24 8 70 22 103 31 33 9 69 20 80 25 11 4
52 17 90 30 39 12 89 31 112 41 24 10 48 19 54 19 11 0 28 7 124 49 l50 22 2
232 c2 279 21 712 52 1222 22 348 32 483 37 515 4 19 11 100 16 180 5 80 13
201 17 270 5 69 12 135 16 148 9 28 -18 118 -48 164 -42 61 -126 98 -222 98
-64 0 -77 -3 -112 -29 -22 -16 -47 -45 -57 -65 -15 -32 -56 -216 -92 -416 -7
-41 -17 -95 -23 -120 -5 -25 -14 -72 -20 -105 -6 -33 -24 -125 -41 -205 -17
-80 -35 -172 -40 -205 -6 -33 -15 -80 -20 -105 -27 -128 -53 -258 -95 -475
-72 -378 -65 -341 -84 -465 -10 -66 -45 -160 -70 -192 -26 -31 -79 -47 -116
-35 -74 24 -127 114 -147 247 -5 36 -13 90 -18 120 -4 30 -15 107 -24 170 -9
63 -21 134 -26 158 -6 23 -10 53 -10 67 0 14 -4 44 -10 67 -5 24 -26 147 -45
273 -20 127 -40 250 -45 275 -5 25 -17 97 -26 160 -9 63 -20 135 -24 160 -5
25 -16 88 -25 140 -9 52 -20 118 -25 145 -13 77 -27 158 -50 295 -12 69 -24
138 -27 155 -9 43 -59 120 -101 153 -72 56 -131 76 -188 63z"/>
<path d="M7082 7189 c-122 -11 -281 -52 -387 -98 -11 -5 -58 -24 -105 -41 -47
-18 -109 -43 -138 -56 -29 -13 -55 -24 -57 -24 -3 0 -25 -9 -50 -20 -25 -11
-65 -29 -90 -40 -25 -11 -47 -20 -51 -20 -3 0 -38 -15 -77 -34 -40 -18 -101
-46 -137 -62 -36 -16 -150 -72 -255 -125 -104 -53 -239 -122 -300 -152 -60
-31 -132 -66 -160 -77 -27 -12 -63 -28 -80 -35 -70 -31 -322 -119 -430 -149
-33 -10 -68 -21 -77 -27 -10 -5 -24 -9 -32 -9 -15 0 -183 -53 -221 -70 -39
-17 -72 -21 -234 -30 -140 -8 -171 -13 -217 -34 -100 -46 -99 -116 2 -213 36
-35 70 -63 76 -63 6 0 19 -7 28 -15 22 -20 131 -61 230 -87 70 -18 96 -19 385
-13 171 4 418 8 550 9 223 1 242 0 275 -19 70 -40 108 -76 131 -122 20 -41 23
-62 22 -152 -1 -56 -6 -115 -11 -130 -6 -14 -18 -53 -28 -86 -25 -85 -63 -174
-160 -373 -83 -169 -109 -216 -203 -357 -52 -79 -262 -379 -303 -434 -15 -20
-39 -52 -53 -71 -75 -105 -66 -93 -259 -348 -56 -74 -110 -146 -121 -162 -11
-15 -40 -53 -65 -85 -82 -104 -110 -140 -127 -165 -17 -24 -130 -171 -209
-270 -163 -207 -292 -376 -331 -434 -43 -65 -46 -73 -46 -135 0 -54 5 -74 26
-108 50 -78 150 -153 207 -153 60 0 120 54 576 512 253 255 602 607 775 784
173 176 329 330 346 343 48 33 133 34 167 2 70 -65 58 -178 -38 -369 -29 -58
-220 -469 -286 -617 -12 -27 -60 -131 -105 -230 -45 -99 -93 -202 -105 -230
-25 -57 -53 -118 -100 -220 -54 -116 -118 -262 -184 -415 -35 -80 -74 -167
-87 -195 -35 -74 -34 -190 4 -266 15 -31 35 -63 46 -73 28 -25 120 -56 168
-56 47 0 139 37 164 66 9 10 56 93 104 184 129 241 132 247 266 486 67 120
143 257 169 304 25 47 93 166 150 265 56 99 130 227 163 285 33 58 112 194
176 303 64 109 121 208 128 220 20 37 96 104 126 111 42 10 80 -35 97 -114 13
-60 12 -91 -11 -295 -5 -44 -13 -127 -18 -185 -6 -58 -15 -145 -21 -195 -6
-49 -16 -133 -21 -185 -6 -52 -15 -126 -19 -165 -5 -38 -16 -131 -24 -205 -9
-74 -20 -171 -26 -215 -5 -44 -14 -129 -20 -190 -6 -60 -16 -137 -21 -170 -6
-33 -13 -139 -16 -235 -5 -168 -5 -177 17 -212 30 -52 75 -77 160 -87 84 -11
110 -4 158 42 70 67 99 161 157 507 15 85 30 171 35 190 5 19 14 76 20 125 6
50 16 115 21 145 6 30 15 80 20 110 24 133 29 159 39 235 12 84 22 145 47 260
8 38 21 112 29 165 8 52 19 115 24 140 5 25 16 83 25 130 43 230 82 339 140
398 46 46 76 53 123 28 54 -28 112 -118 130 -203 20 -91 32 -169 32 -208 0
-21 4 -64 10 -94 9 -52 22 -171 40 -371 5 -47 13 -128 19 -180 6 -52 15 -142
21 -200 55 -544 60 -571 128 -632 65 -59 160 -63 236 -10 46 32 60 67 75 182
28 228 35 462 33 1135 -2 663 4 866 29 995 29 148 67 261 160 468 196 440 313
763 401 1102 57 222 85 447 67 545 -36 203 -53 264 -100 358 -65 127 -76 138
-221 211 -135 68 -179 93 -303 175 -147 96 -213 152 -419 353 -94 91 -189 176
-212 187 -116 60 -344 83 -582 60z"/>
<path d="M9076 6418 c-22 -32 -20 -44 19 -125 19 -40 35 -77 35 -82 0 -5 9
-30 19 -54 42 -98 61 -230 61 -424 0 -197 -9 -279 -46 -416 -13 -48 -24 -94
-24 -102 0 -27 38 -55 74 -55 55 0 81 57 118 253 17 90 22 152 22 312 1 241
-14 331 -93 540 -18 48 -68 141 -83 157 -26 26 -83 23 -102 -4z"/>
<path d="M9584 6326 l-34 -34 17 -48 c9 -27 19 -53 23 -59 6 -9 36 -132 61
-255 27 -136 -16 -501 -81 -675 -12 -33 -27 -74 -32 -91 -23 -69 21 -119 80
-95 42 18 88 122 129 295 79 338 74 551 -21 853 -21 63 -34 88 -61 112 -20 17
-38 31 -41 31 -3 0 -21 -15 -40 -34z"/>
<path d="M2160 4001 c-35 -35 -35 -44 13 -161 98 -241 321 -532 512 -670 99
-71 246 -150 280 -150 54 0 87 78 48 112 -10 9 -42 28 -71 42 -29 15 -78 43
-109 64 -30 20 -67 45 -81 54 -66 44 -217 209 -291 319 -76 112 -181 312 -181
343 0 21 -40 63 -68 71 -17 5 -30 -1 -52 -24z"/>
<path d="M1795 3850 l-29 -30 13 -63 c33 -160 170 -440 298 -607 48 -63 181
-197 233 -234 93 -66 138 -96 173 -112 l37 -18 30 29 c17 16 30 35 30 42 0 20
-29 73 -40 73 -5 0 -29 14 -52 30 -24 17 -59 41 -78 54 -66 45 -228 220 -282
306 -97 152 -180 332 -209 455 -12 53 -52 105 -79 105 -9 0 -29 -14 -45 -30z"/>
</g>
</svg>
