<?xml version="1.0" standalone="no"?>
<!DOCTYPE svg PUBLIC "-//W3C//DTD SVG 20010904//EN"
 "http://www.w3.org/TR/2001/REC-SVG-20010904/DTD/svg10.dtd">
<svg version="1.0" xmlns="http://www.w3.org/2000/svg"
 width="1080.000000pt" height="1080.000000pt" viewBox="0 0 1080.000000 1080.000000"
 preserveAspectRatio="xMidYMid meet">

<g transform="translate(0.000000,1080.000000) scale(0.100000,-0.100000)"
fill="#ffffff" stroke="none">
<path d="M3103 7814 c-55 -139 -1849 -5261 -1845 -5268 6 -11 1181 -1 1192 10
4 5 92 287 196 627 l187 617 958 0 958 0 20 -67 c12 -38 97 -318 190 -623
l169 -555 108 -5 c171 -8 1094 -12 1094 -5 0 13 -1853 5260 -1861 5269 -5 5
-300 11 -683 14 -655 5 -676 4 -683 -14z m826 -1292 c186 -596 551 -1780 551
-1785 0 -4 -306 -7 -680 -7 -515 0 -680 3 -680 12 0 6 78 268 174 582 260 852
416 1376 486 1636 l12 45 49 -178 c27 -98 66 -235 88 -305z"/>
<path d="M6520 5185 l0 -305 1425 0 1425 0 0 305 0 305 -1425 0 -1425 0 0
-305z"/>
</g>
</svg>
